<svg xmlns="http://www.w3.org/2000/svg" viewBox="90 50 420 490">
<title>EmloX Tech ribbon X</title>
<defs>
        <linearGradient id="ribbonA" x1="0" y1="0" x2="1" y2="1">
          <stop stop-color="#c5ec66" />
          <stop offset=".25" stop-color="#a5d741" />
          <stop offset=".52" stop-color="#587f1e" />
          <stop offset=".72" stop-color="#b3e34d" />
          <stop offset="1" stop-color="#7fab2c" />
        </linearGradient>
        <linearGradient id="ribbonB" x1="0" y1="1" x2="1" y2="0">
          <stop stop-color="#567c20" />
          <stop offset=".28" stop-color="#a7d646" />
          <stop offset=".49" stop-color="#d4f58d" />
          <stop offset=".7" stop-color="#8ab935" />
          <stop offset="1" stop-color="#3e591b" />
        </linearGradient>
      </defs>
      <g transform="translate(300 300) rotate(-18) translate(-300 -300)">
        <path
          d="M143 96 C210 50 251 113 300 209 L459 471 C475 503 432 548 395 510 L199 207 C177 172 156 147 143 96Z"
          fill="url(#ribbonA)"
        />
        <path
          d="M446 96 C492 126 469 181 424 251 L216 499 C188 535 126 506 151 461 L355 162 C385 119 412 98 446 96Z"
          fill="url(#ribbonB)"
        />
        <path
          d="M143 96 C184 83 211 121 233 160 L423 481"
          fill="none"
          stroke="#efffb9"
          stroke-opacity=".65"
          stroke-width="2"
        />
        <path
          d="M446 96 C454 141 429 171 405 204 L175 485"
          fill="none"
          stroke="#efffb9"
          stroke-opacity=".55"
          stroke-width="2"
        />
      </g>
</svg>
